<?xml version="1.0" encoding="utf-8"?>
<!-- Generator: Adobe Illustrator 24.0.0, SVG Export Plug-In . SVG Version: 6.00 Build 0)  -->
<svg version="1.1" id="Layer_1" xmlns="http://www.w3.org/2000/svg" xmlns:xlink="http://www.w3.org/1999/xlink" x="0px" y="0px"
	 viewBox="0 0 300 139.68" style="enable-background:new 0 0 300 139.68;" xml:space="preserve">
<style type="text/css">
	.st0{fill:#0C0C0C;}
	.st1{opacity:0.15;}
	.st2{clip-path:url(#SVGID_2_);fill:url(#SVGID_3_);}
	.st3{clip-path:url(#SVGID_5_);fill:url(#SVGID_6_);}
	.st4{clip-path:url(#SVGID_9_);fill:url(#SVGID_10_);}
	.st5{clip-path:url(#SVGID_13_);fill:url(#SVGID_14_);stroke:#FFFFFF;stroke-width:2;stroke-miterlimit:10;}
	.st6{clip-path:url(#SVGID_17_);fill:url(#SVGID_18_);stroke:#FFFFFF;stroke-width:2;stroke-miterlimit:10;}
	.st7{clip-path:url(#SVGID_20_);fill:url(#SVGID_21_);}
	.st8{fill:#FFFFFF;}
	.st9{clip-path:url(#SVGID_23_);fill:url(#SVGID_24_);}
	.st10{clip-path:url(#SVGID_26_);fill:url(#SVGID_27_);}
	.st11{clip-path:url(#SVGID_29_);fill:url(#SVGID_30_);}
	.st12{clip-path:url(#SVGID_33_);fill:url(#SVGID_34_);}
	.st13{clip-path:url(#SVGID_37_);fill:url(#SVGID_38_);stroke:#FFFFFF;stroke-width:2;stroke-miterlimit:10;}
	.st14{clip-path:url(#SVGID_41_);fill:url(#SVGID_42_);stroke:#FFFFFF;stroke-width:2;stroke-miterlimit:10;}
	.st15{clip-path:url(#SVGID_44_);fill:url(#SVGID_45_);}
	.st16{clip-path:url(#SVGID_47_);fill:url(#SVGID_48_);}
	.st17{clip-path:url(#SVGID_50_);fill:url(#SVGID_51_);}
	.st18{clip-path:url(#SVGID_54_);fill:url(#SVGID_55_);stroke:#0C0C0C;stroke-miterlimit:10;}
	.st19{clip-path:url(#SVGID_58_);fill:url(#SVGID_59_);stroke:#0C0C0C;stroke-miterlimit:10;}
	.st20{clip-path:url(#SVGID_61_);fill:url(#SVGID_62_);}
	.st21{clip-path:url(#SVGID_64_);fill:url(#SVGID_65_);}
	.st22{clip-path:url(#SVGID_67_);}
	.st23{clip-path:url(#SVGID_69_);}
	.st24{clip-path:url(#SVGID_71_);}
	.st25{clip-path:url(#SVGID_73_);stroke:#FFFFFF;stroke-width:2;stroke-miterlimit:10;}
	.st26{clip-path:url(#SVGID_75_);stroke:#FFFFFF;stroke-width:2;stroke-miterlimit:10;}
	.st27{clip-path:url(#SVGID_77_);}
	.st28{clip-path:url(#SVGID_79_);fill:#4F4F4F;}
	.st29{clip-path:url(#SVGID_81_);}
	.st30{clip-path:url(#SVGID_83_);}
	.st31{clip-path:url(#SVGID_85_);}
	.st32{clip-path:url(#SVGID_87_);stroke:#FFFFFF;stroke-miterlimit:10;}
	.st33{clip-path:url(#SVGID_89_);stroke:#FFFFFF;stroke-miterlimit:10;}
	.st34{clip-path:url(#SVGID_91_);}
	.st35{clip-path:url(#SVGID_93_);fill:#4F4F4F;}
	.st36{clip-path:url(#SVGID_95_);fill:url(#SVGID_96_);}
	.st37{clip-path:url(#SVGID_98_);fill:url(#SVGID_99_);}
	.st38{clip-path:url(#SVGID_101_);fill:url(#SVGID_102_);}
	.st39{clip-path:url(#SVGID_104_);fill:url(#SVGID_105_);}
	.st40{clip-path:url(#SVGID_107_);fill:url(#SVGID_108_);}
	.st41{clip-path:url(#SVGID_110_);fill:url(#SVGID_111_);}
	.st42{clip-path:url(#SVGID_114_);fill:url(#SVGID_115_);stroke:#FFFFFF;stroke-miterlimit:10;}
	.st43{clip-path:url(#SVGID_117_);fill:url(#SVGID_118_);}
	.st44{clip-path:url(#SVGID_120_);fill:url(#SVGID_121_);}
	.st45{clip-path:url(#SVGID_124_);fill:url(#SVGID_125_);}
	.st46{clip-path:url(#SVGID_128_);fill:url(#SVGID_129_);stroke:#FFFFFF;stroke-width:2;stroke-miterlimit:10;}
	.st47{clip-path:url(#SVGID_132_);fill:url(#SVGID_133_);stroke:#FFFFFF;stroke-width:2;stroke-miterlimit:10;}
	.st48{clip-path:url(#SVGID_135_);fill:url(#SVGID_136_);}
	.st49{clip-path:url(#SVGID_138_);fill:url(#SVGID_139_);}
	.st50{clip-path:url(#SVGID_141_);fill:url(#SVGID_142_);}
	.st51{clip-path:url(#SVGID_144_);fill:url(#SVGID_145_);}
	.st52{clip-path:url(#SVGID_147_);fill:url(#SVGID_148_);}
	.st53{clip-path:url(#SVGID_151_);fill:url(#SVGID_152_);stroke:#FFFFFF;stroke-miterlimit:10;}
	.st54{clip-path:url(#SVGID_155_);fill:url(#SVGID_156_);stroke:#FFFFFF;stroke-miterlimit:10;}
	.st55{clip-path:url(#SVGID_158_);fill:url(#SVGID_159_);}
	.st56{clip-path:url(#SVGID_161_);fill:url(#SVGID_162_);}
	.st57{fill:url(#SVGID_163_);}
	.st58{fill:url(#SVGID_164_);}
	.st59{fill:url(#SVGID_165_);}
	.st60{fill:url(#SVGID_166_);}
	.st61{clip-path:url(#SVGID_169_);fill:url(#SVGID_170_);}
	.st62{clip-path:url(#SVGID_173_);fill:url(#SVGID_174_);}
	.st63{fill:url(#SVGID_175_);}
	.st64{fill:url(#SVGID_176_);}
	.st65{fill:url(#SVGID_177_);}
	.st66{fill:url(#SVGID_178_);}
	.st67{clip-path:url(#SVGID_181_);fill:url(#SVGID_182_);}
	.st68{clip-path:url(#SVGID_185_);fill:url(#SVGID_186_);}
	.st69{fill:url(#SVGID_187_);}
	.st70{fill:url(#SVGID_188_);}
	.st71{fill:url(#SVGID_189_);}
	.st72{fill:url(#SVGID_190_);}
	.st73{fill:url(#SVGID_191_);}
	.st74{fill:url(#SVGID_192_);}
	.st75{fill:url(#SVGID_193_);}
	.st76{clip-path:url(#SVGID_195_);fill:url(#SVGID_196_);}
	.st77{clip-path:url(#SVGID_198_);fill:url(#SVGID_199_);}
	.st78{clip-path:url(#SVGID_202_);fill:url(#SVGID_203_);}
	.st79{clip-path:url(#SVGID_206_);fill:url(#SVGID_207_);}
	.st80{fill:url(#SVGID_208_);}
	.st81{fill:url(#SVGID_209_);}
	.st82{fill:url(#SVGID_210_);}
	.st83{fill:url(#SVGID_211_);}
	.st84{fill:url(#SVGID_212_);}
	.st85{clip-path:url(#SVGID_214_);fill:url(#SVGID_215_);}
	.st86{clip-path:url(#SVGID_217_);fill:url(#SVGID_218_);}
	.st87{clip-path:url(#SVGID_220_);fill:url(#SVGID_221_);}
	.st88{clip-path:url(#SVGID_224_);fill:url(#SVGID_225_);}
	.st89{clip-path:url(#SVGID_228_);fill:url(#SVGID_229_);stroke:#FFFFFF;stroke-miterlimit:10;}
	.st90{clip-path:url(#SVGID_232_);fill:url(#SVGID_233_);stroke:#FFFFFF;stroke-miterlimit:10;}
	.st91{clip-path:url(#SVGID_235_);fill:url(#SVGID_236_);}
	.st92{clip-path:url(#SVGID_238_);fill:url(#SVGID_239_);}
	.st93{clip-path:url(#SVGID_241_);fill:url(#SVGID_242_);}
	.st94{clip-path:url(#SVGID_245_);fill:url(#SVGID_246_);}
	.st95{clip-path:url(#SVGID_249_);fill:url(#SVGID_250_);}
	.st96{fill:url(#SVGID_251_);}
	.st97{fill:url(#SVGID_252_);}
	.st98{fill:url(#SVGID_253_);}
	.st99{fill:url(#SVGID_254_);}
	.st100{fill:url(#SVGID_255_);}
	.st101{fill:url(#SVGID_256_);}
	.st102{fill:url(#SVGID_257_);}
	.st103{fill:url(#SVGID_258_);}
	.st104{fill:url(#SVGID_259_);}
	.st105{fill:none;}
	.st106{fill:url(#SVGID_260_);}
</style>
<g>
	<g>
		<g>
			<defs>
				<path id="SVGID_116_" d="M99.38,20.03L66.6,39.18v17.37l34.81-8.64V21.19c0-0.79-0.65-1.35-1.36-1.35
					C99.83,19.84,99.6,19.9,99.38,20.03"/>
			</defs>
			<clipPath id="SVGID_2_">
				<use xlink:href="#SVGID_116_"  style="overflow:visible;"/>
			</clipPath>
			
				<linearGradient id="SVGID_3_" gradientUnits="userSpaceOnUse" x1="-323.0836" y1="14.8985" x2="-322.0836" y2="14.8985" gradientTransform="matrix(34.8083 0 0 -34.8083 11312.6074 556.7835)">
				<stop  offset="0" style="stop-color:#00C4BA"/>
				<stop  offset="0.618" style="stop-color:#007975"/>
				<stop  offset="1" style="stop-color:#004F4F"/>
			</linearGradient>
			<rect x="66.6" y="19.84" class="st2" width="34.81" height="36.7"/>
		</g>
		<g>
			<defs>
				<path id="SVGID_119_" d="M66.6,100.5l32.77,19.15c0.9,0.53,2.04-0.12,2.04-1.17V91.77L66.6,83.14V100.5z"/>
			</defs>
			<clipPath id="SVGID_5_">
				<use xlink:href="#SVGID_119_"  style="overflow:visible;"/>
			</clipPath>
			
				<linearGradient id="SVGID_6_" gradientUnits="userSpaceOnUse" x1="-323.0836" y1="14.8936" x2="-322.0836" y2="14.8936" gradientTransform="matrix(34.8083 0 0 -34.8083 11312.6074 620.0805)">
				<stop  offset="0" style="stop-color:#00C4BA"/>
				<stop  offset="0.618" style="stop-color:#007975"/>
				<stop  offset="1" style="stop-color:#004F4F"/>
			</linearGradient>
			<rect x="66.6" y="83.14" class="st3" width="34.81" height="37.04"/>
		</g>
		<g>
			<defs>
				<polygon id="SVGID_122_" points="66.6,83.14 79.75,69.85 66.6,56.54 				"/>
			</defs>
			<linearGradient id="SVGID_8_" gradientUnits="userSpaceOnUse" x1="66.604" y1="69.8405" x2="79.745" y2="69.8405">
				<stop  offset="0" style="stop-color:#00C4BA"/>
				<stop  offset="0.1513" style="stop-color:#00BEB4"/>
				<stop  offset="0.3587" style="stop-color:#00ACA4"/>
				<stop  offset="0.5986" style="stop-color:#008F8A"/>
				<stop  offset="0.8608" style="stop-color:#006765"/>
				<stop  offset="1" style="stop-color:#004F4F"/>
			</linearGradient>
			<use xlink:href="#SVGID_122_"  style="overflow:visible;fill:url(#SVGID_8_);"/>
			<clipPath id="SVGID_9_">
				<use xlink:href="#SVGID_122_"  style="overflow:visible;"/>
			</clipPath>
			<linearGradient id="SVGID_10_" gradientUnits="userSpaceOnUse" x1="66.604" y1="69.8405" x2="79.745" y2="69.8405">
				<stop  offset="0" style="stop-color:#00C4BA"/>
				<stop  offset="0.1513" style="stop-color:#00BEB4"/>
				<stop  offset="0.3587" style="stop-color:#00ACA4"/>
				<stop  offset="0.5986" style="stop-color:#008F8A"/>
				<stop  offset="0.8608" style="stop-color:#006765"/>
				<stop  offset="1" style="stop-color:#004F4F"/>
			</linearGradient>
			<rect x="66.6" y="56.54" class="st4" width="13.14" height="26.59"/>
		</g>
		<g>
			<defs>
				<polygon id="SVGID_126_" points="66.6,83.14 101.41,91.77 79.75,69.85 				"/>
			</defs>
			<linearGradient id="SVGID_12_" gradientUnits="userSpaceOnUse" x1="66.604" y1="80.8126" x2="101.412" y2="80.8126">
				<stop  offset="0" style="stop-color:#00C4BA"/>
				<stop  offset="0.618" style="stop-color:#007975"/>
				<stop  offset="1" style="stop-color:#004F4F"/>
			</linearGradient>
			<use xlink:href="#SVGID_126_"  style="overflow:visible;fill:url(#SVGID_12_);"/>
			<clipPath id="SVGID_13_">
				<use xlink:href="#SVGID_126_"  style="overflow:visible;"/>
			</clipPath>
			
				<linearGradient id="SVGID_14_" gradientUnits="userSpaceOnUse" x1="-335.4174" y1="-3.0531" x2="-334.4174" y2="-3.0531" gradientTransform="matrix(4.2014 -15.6797 -15.6797 -4.2014 1443.5962 -5184.7227)">
				<stop  offset="0" style="stop-color:#00C4BA"/>
				<stop  offset="0.618" style="stop-color:#007975"/>
				<stop  offset="1" style="stop-color:#004F4F"/>
			</linearGradient>
			<polygon class="st5" points="61.12,90.3 68.94,61.15 106.89,71.32 99.08,100.47 			"/>
			<use xlink:href="#SVGID_126_"  style="overflow:visible;fill:none;stroke:#FFFFFF;stroke-miterlimit:10;"/>
		</g>
		<g>
			<defs>
				<polygon id="SVGID_130_" points="66.6,56.54 79.75,69.83 101.41,47.91 				"/>
			</defs>
			<linearGradient id="SVGID_16_" gradientUnits="userSpaceOnUse" x1="66.604" y1="58.868" x2="101.412" y2="58.868">
				<stop  offset="0" style="stop-color:#00C4BA"/>
				<stop  offset="0.618" style="stop-color:#007975"/>
				<stop  offset="1" style="stop-color:#004F4F"/>
			</linearGradient>
			<use xlink:href="#SVGID_130_"  style="overflow:visible;fill:url(#SVGID_16_);"/>
			<clipPath id="SVGID_17_">
				<use xlink:href="#SVGID_130_"  style="overflow:visible;"/>
			</clipPath>
			
				<linearGradient id="SVGID_18_" gradientUnits="userSpaceOnUse" x1="-319.2553" y1="36.3224" x2="-318.2553" y2="36.3224" gradientTransform="matrix(4.2014 15.6797 15.6797 -4.2014 854.0411 5210.7642)">
				<stop  offset="0" style="stop-color:#00C4BA"/>
				<stop  offset="0.618" style="stop-color:#007975"/>
				<stop  offset="1" style="stop-color:#004F4F"/>
			</linearGradient>
			<polygon class="st6" points="99.08,39.21 106.89,68.36 68.94,78.53 61.12,49.38 			"/>
			<use xlink:href="#SVGID_130_"  style="overflow:visible;fill:none;stroke:#FFFFFF;stroke-miterlimit:10;"/>
		</g>
	</g>
	<g>
		<g>
			<defs>
				<path id="SVGID_134_" d="M111.05,56.43c-1.66,0-3,1.34-3,3v45.51c0,1.66,1.34,3,3,3H230.4c1.66,0,3-1.34,3-3V59.43
					c0-1.66-1.34-3-3-3H111.05z"/>
			</defs>
			<clipPath id="SVGID_20_">
				<use xlink:href="#SVGID_134_"  style="overflow:visible;"/>
			</clipPath>
			
				<linearGradient id="SVGID_21_" gradientUnits="userSpaceOnUse" x1="-329.6174" y1="17.5667" x2="-328.6174" y2="17.5667" gradientTransform="matrix(110.0504 0 0 -110.0504 36392.3359 2015.4077)">
				<stop  offset="0" style="stop-color:#004F4F"/>
				<stop  offset="0.382" style="stop-color:#007975"/>
				<stop  offset="1" style="stop-color:#00C4BA"/>
			</linearGradient>
			<rect x="108.05" y="56.43" class="st7" width="125.35" height="51.51"/>
		</g>
		<path class="st8" d="M131.53,63.72h0.72l25.08,32.23v4.71l-25.8-31.96V63.72z M135.15,78.7v21.59h-3.62V74.26L135.15,78.7z"/>
		<path class="st8" d="M183.62,64.08v3.35H165.2v13.13h-3.35V64.08H183.62z M181.09,84.36v3.35H165.2v12.58h-3.35V84.36H181.09z"/>
		<path class="st8" d="M188.15,67.43v-3.35h21.77v3.35h-9.23l-0.05,13.13h-3.35V67.43H188.15z M200.64,100.29h-3.35V84.35h3.35
			V100.29z"/>
		<g>
			<defs>
				<path id="SVGID_137_" d="M113.88,33.32c-1.84,1.05-3.27,2.52-4.29,4.4c-1.02,1.88-1.53,4.01-1.53,6.38
					c0,2.31,0.52,4.41,1.58,6.29c1.05,1.88,2.51,3.36,4.38,4.43c1.87,1.06,3.97,1.6,6.32,1.6c3.2,0,5.87-0.99,8-2.98
					c0.36-0.36,0.53-0.76,0.53-1.2c0-0.59-0.28-1.13-0.84-1.6c-0.35-0.26-0.74-0.4-1.16-0.4c-0.53,0-1.08,0.21-1.65,0.62
					c-1.24,1.04-2.87,1.56-4.89,1.56c-1.54,0-2.91-0.36-4.11-1.07c-1.2-0.71-2.13-1.7-2.8-2.96c-0.67-1.26-1-2.69-1-4.29
					c0-2.52,0.71-4.54,2.14-6.07c1.42-1.53,3.28-2.29,5.56-2.29c1.13,0,2.13,0.19,3,0.56c0.87,0.37,1.68,0.96,2.42,1.76
					c0.47,0.53,1.05,0.8,1.74,0.8c0.38,0,0.73-0.1,1.02-0.31c0.65-0.44,0.98-0.99,0.98-1.65c0-0.44-0.15-0.83-0.44-1.15
					c-2.31-2.67-5.22-4-8.71-4C117.79,31.74,115.71,32.27,113.88,33.32 M144.64,32.64c-1.31,0.6-2.41,1.41-3.3,2.45v-0.85
					c0-1.49-0.74-2.23-2.23-2.23c-0.71,0-1.26,0.19-1.65,0.58c-0.39,0.39-0.58,0.94-0.58,1.65v19.95c0,0.74,0.19,1.3,0.58,1.67
					c0.39,0.37,0.94,0.56,1.65,0.56c0.75,0,1.3-0.19,1.67-0.58c0.37-0.39,0.56-0.94,0.56-1.65V41.16c0-1.67,0.65-2.99,1.96-3.97
					c1.31-0.98,3.04-1.47,5.18-1.47c0.74,0,1.71,0.1,2.9,0.31c0.3,0.06,0.52,0.09,0.67,0.09c0.92,0,1.52-0.48,1.79-1.43
					c0.03-0.09,0.04-0.24,0.04-0.45c0-0.71-0.45-1.31-1.34-1.78c-0.89-0.47-2.13-0.71-3.71-0.71
					C147.35,31.74,145.95,32.04,144.64,32.64 M164.63,51.33c-1.2-0.72-2.15-1.72-2.85-2.98c-0.7-1.26-1.05-2.68-1.05-4.25
					c0-1.57,0.35-2.99,1.05-4.27c0.7-1.27,1.65-2.27,2.85-3c1.2-0.73,2.54-1.09,4.02-1.09c1.48,0,2.82,0.36,4.02,1.09
					c1.2,0.73,2.14,1.73,2.82,3c0.68,1.28,1.02,2.7,1.02,4.27c0,1.57-0.34,2.99-1.02,4.25c-0.68,1.26-1.62,2.25-2.82,2.98
					c-1.2,0.73-2.54,1.09-4.02,1.09C167.17,52.42,165.83,52.06,164.63,51.33 M162.41,33.37c-1.88,1.08-3.36,2.56-4.42,4.45
					c-1.07,1.88-1.6,3.98-1.6,6.29s0.5,4.41,1.49,6.29c0.99,1.88,2.36,3.36,4.09,4.43c1.74,1.06,3.67,1.6,5.8,1.6
					c1.72,0,3.32-0.36,4.8-1.07c1.48-0.71,2.74-1.7,3.78-2.98v1.65c0,0.65,0.21,1.19,0.65,1.62c0.43,0.43,0.97,0.64,1.62,0.64
					c0.65,0,1.19-0.21,1.62-0.64c0.43-0.43,0.65-0.97,0.65-1.62V44.1c0-2.31-0.54-4.41-1.62-6.29c-1.08-1.88-2.55-3.37-4.4-4.45
					c-1.85-1.08-3.92-1.62-6.2-1.62C166.37,31.74,164.29,32.28,162.41,33.37 M188.95,31.74c-1.41,0-2.12,0.71-2.12,2.12
					c0,1.41,0.71,2.12,2.12,2.12h11.5l-12.77,16.87c-0.27,0.36-0.41,0.84-0.41,1.44c0,1.41,0.71,2.12,2.12,2.12h15.38
					c1.41,0,2.12-0.71,2.12-2.12s-0.71-2.12-2.12-2.12h-11.46l12.72-16.87c0.27-0.36,0.41-0.84,0.41-1.44
					c0-1.41-0.71-2.12-2.12-2.12H188.95z M229.22,33.03l-7.16,16.14l-8.14-16.18c-0.41-0.83-1.04-1.25-1.87-1.25
					c-0.33,0-0.62,0.06-0.89,0.18c-0.39,0.18-0.7,0.43-0.93,0.76c-0.24,0.33-0.36,0.68-0.36,1.07c0,0.35,0.07,0.67,0.22,0.93
					l10,18.99l-4.45,10.01c-0.18,0.36-0.27,0.71-0.27,1.07c0,0.77,0.44,1.35,1.33,1.73c0.41,0.18,0.77,0.27,1.07,0.27
					c0.8,0,1.38-0.46,1.74-1.38l13.61-30.59c0.18-0.42,0.27-0.77,0.27-1.07c0-0.8-0.46-1.38-1.38-1.73
					c-0.33-0.15-0.68-0.22-1.07-0.22C230.18,31.74,229.6,32.17,229.22,33.03"/>
			</defs>
			<clipPath id="SVGID_23_">
				<use xlink:href="#SVGID_137_"  style="overflow:visible;"/>
			</clipPath>
			
				<linearGradient id="SVGID_24_" gradientUnits="userSpaceOnUse" x1="-329.9862" y1="17.7172" x2="-328.9862" y2="17.7172" gradientTransform="matrix(125.3461 0 0 -125.3461 41470.5469 2270.0261)">
				<stop  offset="0" style="stop-color:#00C4BA"/>
				<stop  offset="0.618" style="stop-color:#007975"/>
				<stop  offset="1" style="stop-color:#004F4F"/>
			</linearGradient>
			<rect x="108.05" y="31.74" class="st9" width="125.35" height="34.99"/>
		</g>
	</g>
</g>
</svg>
